<?xml version="1.0" encoding="UTF-8"?>
<!-- Generator: Adobe Illustrator 23.0.3, SVG Export Plug-In  -->
<svg xmlns="http://www.w3.org/2000/svg" xmlns:xlink="http://www.w3.org/1999/xlink" x="0px" y="0px" width="829px" height="163.7px" viewBox="0 0 829 163.7" style="enable-background:new 0 0 829 163.7;" xml:space="preserve">
<style type="text/css">
	.st0_cherry-logo{fill:#DC1F26;}
	.st1_cherry-logo{fill:#221F20;}
	.st2_cherry-logo{enable-background:new    ;}
</style>
<defs>
</defs>
<g>
	<path class="st0_cherry-logo" d="M17.3,93.2c0-41.7,34-75.7,75.7-75.7c18,0,34.5,6.3,47.5,16.8V0H0v140.5h34C23.6,127.5,17.3,111.1,17.3,93.2z"></path>
	<path class="st0_cherry-logo" d="M140.5,41.5C128,30,111.3,23,93,23c-38.7,0-70.2,31.5-70.2,70.2c0,18.2,7,34.8,18.4,47.3h99.3V41.5z"></path>
</g>
<g>
	<g>
		<path class="st1_cherry-logo" d="M209.5,90.8c-3.6,0-7-0.9-10.2-2.8s-5.7-4.4-7.6-7.5c-1.9-3.2-2.8-6.6-2.8-10.4c0-3.6,0.9-7,2.8-10.1    c1.8-3.1,4.3-5.6,7.5-7.5s6.6-2.8,10.2-2.8c4,0,7.7,1.1,11.1,3.3c3.4,2.2,5.9,5.1,7.5,8.8h-8.3c-1.5-1.7-3.1-3-4.8-3.9    c-1.7-0.9-3.6-1.3-5.8-1.3c-2.3,0-4.5,0.6-6.4,1.9c-2,1.3-3.5,3-4.7,5.1s-1.7,4.3-1.7,6.6c0,2.4,0.6,4.6,1.8,6.7s2.8,3.8,4.8,5.1    c2,1.3,4.2,2,6.5,2c1.9,0,3.6-0.4,5.2-1.1c1.6-0.8,3.2-2,4.8-3.8h8.5c-1,2.3-2.4,4.4-4.3,6.2c-1.9,1.8-4,3.2-6.5,4.2    C214.5,90.3,212,90.8,209.5,90.8z"></path>
		<path class="st1_cherry-logo" d="M246.8,73.4V90h-7.3V50.5h7.3v16.1H261V50.5h7.3V90H261V73.4H246.8z"></path>
		<path class="st1_cherry-logo" d="M304.6,50.5v6.8h-13.9V67h13.4v6.8h-13.4v9.4h13.9V90h-21.3V50.5L304.6,50.5L304.6,50.5z"></path>
		<path class="st1_cherry-logo" d="M326.6,74.9V90h-7.3V50.5h13.4c2.5,0,4.8,0.6,6.8,1.7s3.5,2.6,4.6,4.5s1.6,4,1.6,6.2c0,1.5-0.3,3.1-0.9,4.9    c-0.6,1.7-1.7,3.3-3.2,4.8c-1.6,1.5-3.6,2.4-6.2,2.9l10.7,14.6h-8.9l-10.5-15.2H326.6z M338.3,63.3c0-1.9-0.7-3.3-2-4.4    s-3-1.6-4.9-1.6h-4.9v12.1h4.9c2.1,0,3.8-0.5,5-1.6C337.7,66.7,338.3,65.2,338.3,63.3z"></path>
		<path class="st1_cherry-logo" d="M365.6,74.9V90h-7.3V50.5h13.4c2.5,0,4.8,0.6,6.8,1.7s3.5,2.6,4.6,4.5s1.6,4,1.6,6.2c0,1.5-0.3,3.1-0.9,4.9    c-0.6,1.7-1.7,3.3-3.2,4.8c-1.6,1.5-3.6,2.4-6.2,2.9l10.7,14.6h-8.9l-10.5-15.2H365.6z M377.3,63.3c0-1.9-0.7-3.3-2-4.4    s-3-1.6-4.9-1.6h-4.9v12.1h4.9c2.1,0,3.8-0.5,5-1.6C376.7,66.7,377.3,65.2,377.3,63.3z"></path>
		<path class="st1_cherry-logo" d="M391.6,50.5h8l8.6,18.2l8.7-18.2h8.1l-13,25v14.6h-7.3V75.5L391.6,50.5z"></path>
	</g>
	<path class="st1_cherry-logo" d="M476.7,52.4c-3.1-1.8-6.6-2.7-10.3-2.7s-7.1,0.9-10.3,2.6c-3.1,1.8-5.6,4.2-7.5,7.3c-1.8,3.1-2.8,6.6-2.8,10.5   c0,3.8,0.9,7.3,2.8,10.4c1.8,3.1,4.3,5.6,7.5,7.4c3.1,1.8,6.6,2.7,10.3,2.7s7.1-0.9,10.3-2.6c3.1-1.7,5.6-4.2,7.5-7.3   c1.8-3.1,2.8-6.8,2.8-10.9c0-3.7-0.9-7.2-2.8-10.2C482.3,56.6,479.8,54.2,476.7,52.4z M466.4,88.4c-3.3,0-6.4-0.8-9.2-2.4   s-5-3.8-6.6-6.6c-1.6-2.8-2.4-5.9-2.4-9.2c0-3.3,0.8-6.4,2.4-9.1c1.6-2.8,3.7-5,6.5-6.6c2.7-1.6,5.8-2.5,9.2-2.5   c3.3,0,6.4,0.8,9.2,2.4s5,3.8,6.6,6.5c1.6,2.8,2.4,5.9,2.4,9.3s-0.8,6.5-2.4,9.3c-1.6,2.8-3.8,5-6.6,6.5   C472.7,87.6,469.7,88.4,466.4,88.4z"></path>
	<path class="st1_cherry-logo" d="M519.5,54.3c-1-1.2-2.3-2.2-4-2.8c-1.6-0.7-3.7-1-6-1h-10.9v39.6h2.4V73.3h8.6c2.1,0,4.1-0.3,5.7-1   c1.7-0.7,3.1-1.6,4.1-2.8c0.8-1,1.5-2.3,2-3.6c0.5-1.3,0.7-2.7,0.7-4c0-1.2-0.2-2.5-0.6-3.9C521,56.6,520.4,55.4,519.5,54.3z    M501,52.7h8.1c2,0,3.8,0.3,5.2,0.8s2.5,1.2,3.3,2.1c0.7,0.9,1.3,1.9,1.6,3c0.4,1.1,0.5,2.3,0.5,3.4c0,0.9-0.2,1.9-0.5,3   s-0.8,2.1-1.5,3.1c-0.7,0.9-1.8,1.6-3.2,2.2s-3.2,0.9-5.2,0.9h-8.2L501,52.7L501,52.7z"></path>
	<polygon class="st1_cherry-logo" points="529.9,52.7 540.5,52.7 540.5,90 542.9,90 542.9,52.7 553.4,52.7 553.4,50.4 529.9,50.4  "></polygon>
	<rect x="564.8" y="50.4" class="st1_cherry-logo" width="2.4" height="39.6"></rect>
	<path class="st1_cherry-logo" d="M591.8,54.4c2.8-1.6,5.8-2.4,9.2-2.4c2.8,0,5.6,0.7,8.2,2c2.6,1.3,4.8,3.3,6.6,5.7l0.1,0.2h2.8l-0.4-0.7   c-2-3-4.5-5.3-7.6-7c-3-1.7-6.3-2.5-9.8-2.5c-3.8,0-7.2,0.9-10.4,2.7c-3.1,1.8-5.6,4.3-7.4,7.4c-1.8,3.1-2.7,6.6-2.7,10.4   s0.9,7.3,2.8,10.4c1.8,3.1,4.3,5.6,7.5,7.4c3.1,1.8,6.6,2.7,10.3,2.7c3.5,0,6.9-0.9,10-2.6s5.5-4,7.3-6.7l0.4-0.6h-2.8l-0.1,0.2   c-1.7,2.3-3.9,4.2-6.5,5.5s-5.4,2-8.3,2c-3.3,0-6.4-0.8-9.1-2.4s-5-3.8-6.6-6.6c-1.6-2.8-2.4-5.9-2.4-9.2c0-3.4,0.8-6.5,2.4-9.2   C586.8,58.2,589,56,591.8,54.4z"></path>
	<path class="st1_cherry-logo" d="M646,50.4h-2.6l-16.7,39l-0.3,0.6h2.6l5.8-13.5h19.7l5.8,13.5h2.6L646,50.7L646,50.4z M635.8,74.2l8.8-20.9   l8.8,20.9H635.8z"></path>
	<polygon class="st1_cherry-logo" points="675.5,50.4 673.1,50.4 673.1,90 696.6,90 696.6,87.7 675.5,87.7  "></polygon>
	<polygon class="st1_cherry-logo" points="730.2,50.4 727.8,50.4 727.8,90 751.4,90 751.4,87.7 730.2,87.7  "></polygon>
	<path class="st1_cherry-logo" d="M779.1,50.4h-2.6l-16.7,39l-0.3,0.6h2.6l5.8-13.5h19.7l5.8,13.5h2.6l-16.9-39.3L779.1,50.4z M768.9,74.2   l8.8-20.9l8.8,20.9H768.9z"></path>
	<path class="st1_cherry-logo" d="M821.8,69c1.4-0.7,2.5-1.8,3.3-3c1-1.5,1.5-3.3,1.5-5.4c0-3.1-1-5.6-3-7.4s-4.8-2.7-8.5-2.7h-9v39.6h10.7   c4,0,7-1,9.1-2.9s3.1-4.6,3.1-7.8c0-2.4-0.7-4.6-2.1-6.5C825.7,71,824,69.8,821.8,69z M808.6,70.4h8.1c3,0,5.4,0.8,7.2,2.4   s2.7,3.8,2.7,6.5s-0.8,4.7-2.5,6.2s-4.2,2.2-7.4,2.2h-8.1V70.4z M815.6,68.2h-7.1V52.7h6.8c2.9,0,5.1,0.7,6.6,2.1s2.3,3.3,2.3,5.6   c0,2.4-0.7,4.3-2.1,5.7C820.7,67.5,818.5,68.2,815.6,68.2z"></path>
</g>
<g class="st2_cherry-logo">
	<path class="st1_cherry-logo" d="M194.4,161c3,0,4.5-1,4.5-3.1c0-0.6-0.1-1.2-0.4-1.6s-0.6-0.8-1.1-1.2c-0.5-0.3-1-0.6-1.6-0.8   s-1.2-0.5-1.9-0.7c-0.8-0.3-1.5-0.6-2.1-0.9c-0.7-0.3-1.3-0.7-1.8-1.2c-0.5-0.4-0.9-1-1.2-1.6s-0.4-1.4-0.4-2.2   c0-1.8,0.6-3.2,1.8-4.2c1.2-1,2.9-1.5,5.1-1.5c1.3,0,2.4,0.1,3.4,0.4c1,0.3,1.8,0.6,2.3,0.9l-0.9,2.4c-0.4-0.3-1-0.5-1.9-0.8   c-0.8-0.2-1.8-0.4-2.9-0.4c-0.6,0-1.1,0.1-1.6,0.2s-0.9,0.3-1.3,0.5s-0.6,0.5-0.8,0.9c-0.2,0.4-0.3,0.8-0.3,1.3   c0,0.6,0.1,1,0.3,1.4c0.2,0.4,0.5,0.7,0.9,1s0.9,0.6,1.4,0.8s1.1,0.5,1.7,0.7c0.9,0.4,1.7,0.7,2.5,1.1c0.7,0.4,1.4,0.8,1.9,1.3   s1,1.1,1.3,1.8s0.4,1.5,0.4,2.5c0,1.8-0.7,3.2-2,4.2s-3.2,1.5-5.6,1.5c-0.8,0-1.6-0.1-2.3-0.2s-1.3-0.2-1.8-0.4s-1-0.3-1.4-0.5   s-0.7-0.3-0.9-0.4l0.9-2.4c0.5,0.3,1.2,0.5,2.1,0.9C191.9,160.8,193.1,161,194.4,161z"></path>
	<path class="st1_cherry-logo" d="M204.5,155.3c0-1.4,0.2-2.6,0.6-3.6s0.9-1.9,1.6-2.5c0.7-0.7,1.4-1.2,2.3-1.5s1.7-0.5,2.6-0.5   c2.1,0,3.7,0.7,4.8,2s1.7,3.3,1.7,5.9c0,0.1,0,0.3,0,0.5s0,0.4,0,0.5h-10.6c0.1,1.6,0.6,2.8,1.4,3.7c0.8,0.8,2.1,1.3,3.8,1.3   c1,0,1.8-0.1,2.5-0.3s1.2-0.3,1.5-0.5l0.4,2.3c-0.3,0.2-0.9,0.4-1.8,0.6s-1.8,0.3-2.9,0.3c-1.4,0-2.5-0.2-3.5-0.6   c-1-0.4-1.8-1-2.4-1.7s-1.1-1.6-1.4-2.5C204.6,157.6,204.5,156.5,204.5,155.3z M215.1,153.8c0-1.3-0.3-2.3-0.9-3.1   s-1.5-1.2-2.7-1.2c-0.6,0-1.2,0.1-1.7,0.4c-0.5,0.2-0.9,0.6-1.2,1c-0.3,0.4-0.6,0.9-0.8,1.4c-0.2,0.5-0.3,1-0.4,1.6h7.7V153.8z"></path>
	<path class="st1_cherry-logo" d="M221.1,155.3c0-1.4,0.2-2.6,0.6-3.6s0.9-1.9,1.6-2.5c0.7-0.7,1.4-1.2,2.3-1.5s1.7-0.5,2.6-0.5   c2.1,0,3.7,0.7,4.8,2s1.7,3.3,1.7,5.9c0,0.1,0,0.3,0,0.5s0,0.4,0,0.5h-10.6c0.1,1.6,0.6,2.8,1.4,3.7c0.8,0.8,2.1,1.3,3.8,1.3   c1,0,1.8-0.1,2.5-0.3s1.2-0.3,1.5-0.5l0.4,2.3c-0.3,0.2-0.9,0.4-1.8,0.6s-1.8,0.3-2.9,0.3c-1.4,0-2.5-0.2-3.5-0.6   c-1-0.4-1.8-1-2.4-1.7s-1.1-1.6-1.4-2.5C221.3,157.6,221.1,156.5,221.1,155.3z M231.8,153.8c0-1.3-0.3-2.3-0.9-3.1   s-1.5-1.2-2.7-1.2c-0.6,0-1.2,0.1-1.7,0.4c-0.5,0.2-0.9,0.6-1.2,1c-0.3,0.4-0.6,0.9-0.8,1.4c-0.2,0.5-0.3,1-0.4,1.6h7.7V153.8z"></path>
	<path class="st1_cherry-logo" d="M248.1,147.6h5.9v2.3h-5.9v7.2c0,0.8,0.1,1.4,0.2,1.9s0.3,0.9,0.5,1.2s0.5,0.5,0.9,0.6s0.8,0.2,1.3,0.2   c0.8,0,1.5-0.1,2-0.3s0.9-0.3,1.1-0.4l0.5,2.3c-0.3,0.1-0.8,0.3-1.5,0.5s-1.5,0.3-2.4,0.3c-1.1,0-1.9-0.1-2.6-0.4   c-0.7-0.3-1.2-0.7-1.7-1.2c-0.4-0.5-0.7-1.2-0.9-2c-0.2-0.8-0.3-1.7-0.3-2.7v-13.8l2.8-0.5v4.8H248.1z"></path>
	<path class="st1_cherry-logo" d="M257.5,163.1v-22.7l2.8-0.5v7.9c0.5-0.2,1.1-0.4,1.7-0.5s1.2-0.2,1.7-0.2c1.2,0,2.3,0.2,3.1,0.5   c0.8,0.3,1.5,0.8,2,1.5c0.5,0.6,0.8,1.4,1,2.3c0.2,0.9,0.3,1.8,0.3,2.9v8.7h-2.8v-8.1c0-1-0.1-1.8-0.2-2.4   c-0.1-0.7-0.3-1.2-0.6-1.6s-0.7-0.7-1.2-0.9s-1.1-0.3-1.8-0.3c-0.3,0-0.6,0-0.9,0.1c-0.3,0-0.6,0.1-0.9,0.1s-0.5,0.1-0.8,0.2   s-0.4,0.1-0.5,0.1v12.9H257.5z"></path>
	<path class="st1_cherry-logo" d="M273.7,155.3c0-1.4,0.2-2.6,0.6-3.6s0.9-1.9,1.6-2.5c0.7-0.7,1.4-1.2,2.3-1.5s1.7-0.5,2.6-0.5   c2.1,0,3.7,0.7,4.8,2s1.7,3.3,1.7,5.9c0,0.1,0,0.3,0,0.5s0,0.4,0,0.5h-10.6c0.1,1.6,0.6,2.8,1.4,3.7c0.8,0.8,2.1,1.3,3.8,1.3   c1,0,1.8-0.1,2.5-0.3s1.2-0.3,1.5-0.5l0.4,2.3c-0.3,0.2-0.9,0.4-1.8,0.6s-1.8,0.3-2.9,0.3c-1.4,0-2.5-0.2-3.5-0.6   c-1-0.4-1.8-1-2.4-1.7s-1.1-1.6-1.4-2.5C273.8,157.6,273.7,156.5,273.7,155.3z M284.3,153.8c0-1.3-0.3-2.3-0.9-3.1   s-1.5-1.2-2.7-1.2c-0.6,0-1.2,0.1-1.7,0.4c-0.5,0.2-0.9,0.6-1.2,1c-0.3,0.4-0.6,0.9-0.8,1.4c-0.2,0.5-0.3,1-0.4,1.6h7.7V153.8z"></path>
	<path class="st1_cherry-logo" d="M308.1,140.4l2.8-0.5v22.7c-0.6,0.2-1.5,0.4-2.4,0.5c-1,0.2-2.1,0.3-3.4,0.3c-1.2,0-2.3-0.2-3.2-0.6   c-1-0.4-1.8-0.9-2.4-1.6c-0.7-0.7-1.2-1.5-1.6-2.5s-0.6-2.1-0.6-3.4c0-1.2,0.2-2.3,0.5-3.3s0.8-1.8,1.4-2.6s1.3-1.3,2.2-1.7   c0.9-0.4,1.9-0.6,3-0.6c0.9,0,1.7,0.1,2.4,0.4c0.7,0.2,1.2,0.5,1.5,0.7v-7.8H308.1z M308.1,150.8c-0.3-0.3-0.8-0.5-1.5-0.8   c-0.6-0.3-1.3-0.4-2.1-0.4c-0.8,0-1.5,0.1-2,0.4c-0.6,0.3-1,0.7-1.4,1.2s-0.6,1.1-0.8,1.8c-0.2,0.7-0.2,1.4-0.2,2.2   c0,1.8,0.4,3.2,1.3,4.2s2.1,1.5,3.6,1.5c0.8,0,1.4,0,1.9-0.1s0.9-0.1,1.2-0.2V150.8z"></path>
	<path class="st1_cherry-logo" d="M317,144.8c-0.5,0-0.9-0.2-1.3-0.5c-0.3-0.3-0.5-0.8-0.5-1.3s0.2-1,0.5-1.3s0.8-0.5,1.3-0.5s0.9,0.2,1.3,0.5   c0.3,0.3,0.5,0.8,0.5,1.3s-0.2,1-0.5,1.3S317.5,144.8,317,144.8z M318.4,163.1h-2.8v-15.5h2.8V163.1z"></path>
	<path class="st1_cherry-logo" d="M329.3,139.9c0.8,0,1.5,0.1,2.1,0.2c0.6,0.1,1,0.2,1.2,0.3l-0.5,2.4c-0.2-0.1-0.6-0.2-1-0.3s-1-0.2-1.6-0.2   c-1.3,0-2.2,0.4-2.7,1.1c-0.5,0.7-0.8,1.7-0.8,2.8v1.3h6v2.3h-6V163h-2.8v-16.9c0-2,0.5-3.5,1.5-4.6   C325.6,140.5,327.2,139.9,329.3,139.9z M340.9,139.9c0.8,0,1.5,0.1,2.1,0.2c0.6,0.1,1,0.2,1.2,0.3l-0.5,2.4c-0.2-0.1-0.6-0.2-1-0.3   s-1-0.2-1.6-0.2c-1.3,0-2.2,0.4-2.7,1.1c-0.5,0.7-0.8,1.7-0.8,2.8v1.3h6v2.3h-6V163h-2.8v-16.9c0-2,0.5-3.5,1.5-4.6   C337.3,140.5,338.8,139.9,340.9,139.9z"></path>
	<path class="st1_cherry-logo" d="M345.5,155.3c0-1.4,0.2-2.6,0.6-3.6s0.9-1.9,1.6-2.5c0.7-0.7,1.4-1.2,2.3-1.5s1.7-0.5,2.6-0.5   c2.1,0,3.7,0.7,4.8,2s1.7,3.3,1.7,5.9c0,0.1,0,0.3,0,0.5s0,0.4,0,0.5h-10.6c0.1,1.6,0.6,2.8,1.4,3.7c0.8,0.8,2.1,1.3,3.8,1.3   c1,0,1.8-0.1,2.5-0.3s1.2-0.3,1.5-0.5l0.4,2.3c-0.3,0.2-0.9,0.4-1.8,0.6s-1.8,0.3-2.9,0.3c-1.4,0-2.5-0.2-3.5-0.6   c-1-0.4-1.8-1-2.4-1.7s-1.1-1.6-1.4-2.5C345.6,157.6,345.5,156.5,345.5,155.3z M356.1,153.8c0-1.3-0.3-2.3-0.9-3.1   s-1.5-1.2-2.7-1.2c-0.6,0-1.2,0.1-1.7,0.4c-0.5,0.2-0.9,0.6-1.2,1c-0.3,0.4-0.6,0.9-0.8,1.4c-0.2,0.5-0.3,1-0.4,1.6h7.7V153.8z"></path>
	<path class="st1_cherry-logo" d="M368.7,147.2c0.2,0,0.5,0,0.8,0s0.6,0.1,0.9,0.1s0.6,0.1,0.8,0.1s0.4,0.1,0.6,0.1l-0.5,2.4   c-0.2-0.1-0.6-0.2-1.1-0.3s-1.2-0.2-2-0.2c-0.5,0-1,0.1-1.5,0.2c-0.5,0.1-0.8,0.2-1,0.2v13h-2.8V148c0.7-0.2,1.5-0.5,2.4-0.7   C366.4,147.3,367.5,147.2,368.7,147.2z"></path>
	<path class="st1_cherry-logo" d="M373.7,155.3c0-1.4,0.2-2.6,0.6-3.6s0.9-1.9,1.6-2.5c0.7-0.7,1.4-1.2,2.3-1.5s1.7-0.5,2.6-0.5   c2.1,0,3.7,0.7,4.8,2s1.7,3.3,1.7,5.9c0,0.1,0,0.3,0,0.5s0,0.4,0,0.5h-10.8c0.1,1.6,0.6,2.8,1.4,3.7c0.8,0.8,2.1,1.3,3.8,1.3   c1,0,1.8-0.1,2.5-0.3s1.2-0.3,1.5-0.5l0.4,2.3c-0.3,0.2-0.9,0.4-1.8,0.6s-1.8,0.3-2.9,0.3c-1.4,0-2.5-0.2-3.5-0.6   c-1-0.4-1.8-1-2.4-1.7s-1.1-1.6-1.4-2.5C373.8,157.6,373.7,156.5,373.7,155.3z M384.3,153.8c0-1.3-0.3-2.3-0.9-3.1   s-1.5-1.2-2.7-1.2c-0.6,0-1.2,0.1-1.7,0.4c-0.5,0.2-0.9,0.6-1.2,1c-0.3,0.4-0.6,0.9-0.8,1.4c-0.2,0.5-0.3,1-0.4,1.6h7.7V153.8z"></path>
	<path class="st1_cherry-logo" d="M391.2,148c0.6-0.2,1.5-0.3,2.5-0.5c1.1-0.2,2.3-0.3,3.6-0.3c1.2,0,2.3,0.2,3.1,0.5c0.8,0.3,1.5,0.8,2,1.5   c0.5,0.6,0.8,1.4,1,2.3c0.2,0.9,0.3,1.8,0.3,2.9v8.7h-2.8V155c0-1-0.1-1.8-0.2-2.4c-0.1-0.7-0.3-1.2-0.6-1.6s-0.7-0.7-1.2-0.9   s-1.1-0.3-1.8-0.3c-0.3,0-0.6,0-0.9,0s-0.6,0-0.9,0.1c-0.3,0-0.5,0.1-0.8,0.1s-0.4,0.1-0.5,0.1v13.1h-2.8L391.2,148L391.2,148z"></path>
	<path class="st1_cherry-logo" d="M415,163.4c-1.3,0-2.4-0.2-3.3-0.6c-0.9-0.4-1.7-1-2.4-1.7c-0.6-0.7-1.1-1.6-1.4-2.5c-0.3-1-0.5-2.1-0.5-3.3   s0.2-2.3,0.5-3.3s0.8-1.9,1.5-2.6c0.6-0.7,1.4-1.3,2.3-1.7s2-0.6,3.1-0.6c0.7,0,1.4,0.1,2.1,0.2c0.7,0.1,1.4,0.3,2,0.6l-0.6,2.4   c-0.4-0.2-0.9-0.4-1.4-0.5s-1.1-0.2-1.7-0.2c-1.6,0-2.7,0.5-3.6,1.5c-0.8,1-1.2,2.4-1.2,4.3c0,0.8,0.1,1.6,0.3,2.3   c0.2,0.7,0.5,1.3,0.9,1.8s0.9,0.9,1.6,1.1c0.6,0.3,1.4,0.4,2.3,0.4c0.7,0,1.4-0.1,2-0.2c0.6-0.1,1.1-0.3,1.4-0.4l0.4,2.3   c-0.2,0.1-0.4,0.2-0.7,0.3c-0.3,0.1-0.6,0.2-1,0.2c-0.4,0.1-0.8,0.1-1.2,0.2C415.8,163.4,415.4,163.4,415,163.4z"></path>
	<path class="st1_cherry-logo" d="M421.3,155.3c0-1.4,0.2-2.6,0.6-3.6s0.9-1.9,1.6-2.5c0.7-0.7,1.4-1.2,2.3-1.5c0.9-0.3,1.7-0.5,2.6-0.5   c2.1,0,3.7,0.7,4.8,2s1.7,3.3,1.7,5.9c0,0.1,0,0.3,0,0.5s0,0.4,0,0.5h-10.6c0.1,1.6,0.6,2.8,1.4,3.7c0.8,0.8,2.1,1.3,3.8,1.3   c1,0,1.8-0.1,2.5-0.3s1.2-0.3,1.5-0.5l0.4,2.3c-0.3,0.2-0.9,0.4-1.8,0.6s-1.8,0.3-2.9,0.3c-1.4,0-2.5-0.2-3.5-0.6   c-1-0.4-1.8-1-2.4-1.7s-1.1-1.6-1.4-2.5C421.4,157.6,421.3,156.5,421.3,155.3z M431.9,153.8c0-1.3-0.3-2.3-0.9-3.1   c-0.6-0.8-1.5-1.2-2.7-1.2c-0.6,0-1.2,0.1-1.7,0.4c-0.5,0.2-0.9,0.6-1.2,1s-0.6,0.9-0.8,1.4c-0.2,0.5-0.3,1-0.4,1.6h7.7V153.8z"></path>
	<path class="st1_cherry-logo" d="M442.1,161.5c0,0.5-0.2,1-0.5,1.4c-0.4,0.4-0.8,0.6-1.5,0.6s-1.1-0.2-1.5-0.6c-0.4-0.4-0.5-0.9-0.5-1.4   s0.2-1,0.5-1.4c0.4-0.4,0.8-0.6,1.5-0.6s1.1,0.2,1.5,0.6C441.9,160.5,442.1,160.9,442.1,161.5z"></path>
</g>
</svg>
