<svg width="22" height="22" viewBox="0 0 22 22" fill="none" xmlns="http://www.w3.org/2000/svg">
<path d="M20.0104 0H1.85845C0.866599 0 0 0.71367 0 1.69387V19.8861C0 20.8717 0.866599 21.7499 1.85845 21.7499H20.0051C21.0023 21.7499 21.7499 20.8659 21.7499 19.8861V1.69387C21.7558 0.71367 21.0023 0 20.0104 0ZM6.74199 18.1296H3.62612V8.44169H6.74199V18.1296ZM5.29184 6.96872H5.2695C4.27231 6.96872 3.62661 6.2264 3.62661 5.29718C3.62661 4.35096 4.2893 3.62612 5.30883 3.62612C6.32836 3.62612 6.95221 4.34562 6.97454 5.29718C6.97406 6.2264 6.32836 6.96872 5.29184 6.96872ZM18.1296 18.1296H15.0138V12.8325C15.0138 11.5634 14.5603 10.6963 13.433 10.6963C12.5718 10.6963 12.062 11.2789 11.8353 11.8464C11.7503 12.0503 11.7275 12.328 11.7275 12.6116V18.1296H8.61161V8.44169H11.7275V9.7899C12.1809 9.1442 12.8893 8.21497 14.5375 8.21497C16.5829 8.21497 18.1301 9.56317 18.1301 12.4698L18.1296 18.1296Z" fill="#D2D2D2"/>
</svg>
