<svg width="22" height="18" viewBox="0 0 22 18" fill="none" xmlns="http://www.w3.org/2000/svg">
<path d="M21.4711 2.03383C20.6656 2.38354 19.8135 2.61393 18.9415 2.71773C19.8579 2.18151 20.5471 1.32962 20.8797 0.321843C20.0133 0.828105 19.067 1.18332 18.0813 1.37228C17.6663 0.937591 17.1671 0.591785 16.6141 0.35588C16.0611 0.119974 15.4659 -0.00110288 14.8647 7.56958e-06C12.4304 7.56958e-06 10.4604 1.93996 10.4604 4.33138C10.4587 4.66402 10.4968 4.99566 10.574 5.31924C8.82849 5.23746 7.11923 4.79249 5.55563 4.01279C3.99202 3.23308 2.6085 2.13582 1.49358 0.791187C1.10244 1.45011 0.895581 2.20192 0.894627 2.96805C0.894627 4.46995 1.67877 5.79752 2.86281 6.57529C2.1613 6.55865 1.47416 6.37312 0.859737 6.03443V6.08807C0.859737 8.18894 2.3806 9.93669 4.39352 10.3345C4.01499 10.4353 3.62493 10.4864 3.23318 10.4865C2.95521 10.487 2.67787 10.46 2.40521 10.406C2.9648 12.127 4.59346 13.3785 6.52273 13.4143C4.95506 14.6216 3.03038 15.2741 1.05119 15.2693C0.699875 15.2688 0.348889 15.2479 0 15.2067C2.01344 16.4915 4.3539 17.1711 6.74281 17.1646C14.8553 17.1646 19.2873 10.5625 19.2873 4.83648C19.2873 4.64875 19.2824 4.46101 19.2734 4.27774C20.1336 3.66628 20.8778 2.90641 21.4711 2.03383Z" fill="#D2D2D2"/>
</svg>
