<svg width="26" height="19" viewBox="0 0 26 19" fill="none" xmlns="http://www.w3.org/2000/svg">
<path d="M25.8329 4.19522C25.8329 1.96872 24.1519 0.177625 22.0747 0.177625C19.261 0.0494777 16.3915 0 13.459 0H12.5449C9.61949 0 6.74491 0.0494778 3.93127 0.17812C1.85914 0.17812 0.178066 1.97911 0.178066 4.20562C0.0510965 5.96653 -0.00273842 7.72794 0.000308844 9.48935C-0.00476992 11.2508 0.0527894 13.0138 0.172987 14.7785C0.172987 17.005 1.85406 18.811 3.92619 18.811C6.88204 18.9446 9.91406 19.0039 12.9969 18.999C16.0848 19.0089 19.1083 18.9462 22.0675 18.811C24.1448 18.811 25.8258 17.005 25.8258 14.7785C25.9477 13.0122 26.0036 11.2508 25.9985 9.4844C26.01 7.72299 25.9548 5.95993 25.8329 4.19522ZM10.5134 14.3431V4.62073L17.8776 9.47946L10.5134 14.3431Z" fill="#D2D2D2"/>
</svg>
